<?xml version="1.0" standalone="no"?>
<!DOCTYPE svg PUBLIC "-//W3C//DTD SVG 1.1//EN" "http://www.w3.org/Graphics/SVG/1.1/DTD/svg11.dtd" >
<svg xmlns="http://www.w3.org/2000/svg">
<metadata></metadata>
<defs>
<font id="voyagermedium" horiz-adv-x="1847" >
<font-face units-per-em="2048" ascent="1604" descent="-444" />
<missing-glyph horiz-adv-x="567" />
<glyph unicode="&#xfb00;" horiz-adv-x="1470" d="M100 430v223h99v650q0 128 91 218.5t220 90.5q88 0 162 -46.5t114 -125.5l9 -17l-203 -100l-8 16q-10 20 -31 32.5t-43 12.5q-34 0 -59 -24t-25 -57v-650h459v650q0 127 92 218t221 91q88 0 162.5 -46.5t114.5 -125.5l8 -17l-203 -100l-8 16q-10 20 -31 32.5t-43 12.5 q-35 0 -59.5 -23.5t-24.5 -57.5v-650h189v-223h-189v-430h-229v430h-459v-430h-227v430h-99z" />
<glyph unicode="&#xfb01;" horiz-adv-x="1277" d="M96 430v223h97v650q0 128 91 218.5t220 90.5q89 0 162.5 -46t113.5 -126l8 -17l-202 -100l-8 16q-11 20 -31 32.5t-43 12.5q-34 0 -58 -23.5t-24 -57.5v-650h475v521h231v-1174h-231v430h-475v-430h-229v430h-97zM872 1473q0 57 41.5 98t98.5 41q58 0 98.5 -41t40.5 -98 q0 -59 -40.5 -99.5t-98.5 -40.5q-57 0 -98.5 41t-41.5 99z" />
<glyph unicode="&#xfb02;" horiz-adv-x="1253" d="M94 430v223h96v650q0 128 91.5 218.5t220.5 90.5q89 0 162.5 -46t113.5 -126l8 -17l-202 -100l-9 16q-10 20 -30.5 32.5t-42.5 12.5q-34 0 -59 -24t-25 -57v-650h456v957h236v-1610h-236v430h-456v-430h-228v430h-96z" />
<glyph unicode="&#xfb03;" horiz-adv-x="1966" d="M96 430v223h97v650q0 128 91 218.5t220 90.5q89 0 162.5 -46t113.5 -126l8 -17l-200 -100l-10 16q-11 20 -31 32.5t-43 12.5q-34 0 -58 -23.5t-24 -57.5v-650h459v650q0 128 91 218.5t220 90.5q89 0 162.5 -46t113.5 -126l9 -17l-203 -100l-8 16q-11 20 -31 32.5 t-43 12.5q-34 0 -58 -23.5t-24 -57.5v-650h475v521h232v-1174h-232v430h-475v-430h-229v430h-459v-430h-229v430h-97zM1561 1473q0 57 41 98t98 41q58 0 98.5 -41t40.5 -98q0 -59 -40.5 -99.5t-98.5 -40.5q-57 0 -98 41t-41 99z" />
<glyph unicode="&#xfb04;" horiz-adv-x="1943" d="M96 430v223h97v650q0 128 91 218.5t220 90.5q89 0 162.5 -46t113.5 -126l8 -17l-202 -100l-8 16q-11 20 -31 32.5t-43 12.5q-34 0 -58 -23.5t-24 -57.5v-650h459v650q0 128 91 218.5t220 90.5q88 0 162 -46.5t114 -125.5l9 -17l-203 -100l-8 16q-10 20 -31 32.5t-43 12.5 q-34 0 -59 -24t-25 -57v-650h457v957h235v-1610h-235v430h-457v-430h-227v430h-459v-430h-229v430h-97z" />
<glyph horiz-adv-x="0" />
<glyph horiz-adv-x="682" />
<glyph unicode=" "  horiz-adv-x="567" />
<glyph unicode="&#x09;" horiz-adv-x="567" />
<glyph unicode="&#xa0;" horiz-adv-x="567" />
<glyph unicode="!" horiz-adv-x="585" d="M158 137q0 57 40 97t97 40t98 -40t41 -97t-41 -98t-98 -41t-97 41t-40 98zM180 389v1174h230v-1174h-230z" />
<glyph unicode="&#x22;" horiz-adv-x="1036" d="M141 1171l199 392h223l-198 -392h-224zM471 1171l199 392h223l-199 -392h-223z" />
<glyph unicode="#" horiz-adv-x="1552" d="M100 0l211 475h-143v230h244l67 151h-170v229h271l211 476h233l-209 -476h225l211 476h234l-209 -476h154v-229h-256l-68 -151h182v-230h-282l-209 -475h-236l211 475h-227l-209 -475h-236zM645 705h227l68 151h-227z" />
<glyph unicode="$" horiz-adv-x="1105" d="M84 262l213 96l8 -16q82 -125 207 -125q105 0 179 67t77 171v10q0 73 -40 133.5t-107 91.5l-244 111q-109 50 -174.5 147.5t-65.5 212.5q0 134 77.5 243t207.5 150v166h242v-164q153 -46 233 -182l10 -18l-213 -96l-10 12q-53 67 -133 67q-72 0 -126 -48t-54 -120 q0 -52 27 -97t73 -66l256 -117q83 -38 145.5 -103t94.5 -147q34 -78 34 -170q0 -161 -91.5 -290.5t-245.5 -178.5v-166h-242v156q-106 22 -191 86.5t-139 165.5z" />
<glyph unicode="%" horiz-adv-x="1662" d="M125 1313q0 102 72 174t174 72q101 0 173 -71.5t72 -174.5q0 -101 -72 -172.5t-173 -71.5t-173.5 71.5t-72.5 172.5zM313 1313q0 -23 16.5 -39.5t41.5 -16.5q23 0 40 16.5t17 39.5q0 24 -16.5 40.5t-40.5 16.5q-25 0 -41.5 -16t-16.5 -41zM371 -2l688 1561h233 l-688 -1561h-233zM1049 242q0 103 71 174t172 71q102 0 174 -71.5t72 -173.5q0 -101 -72.5 -172.5t-173.5 -71.5t-172 71.5t-71 172.5zM1235 242q0 -23 17 -39.5t40 -16.5q25 0 41.5 16.5t16.5 39.5q0 25 -16.5 41t-41.5 16q-24 0 -40.5 -16.5t-16.5 -40.5z" />
<glyph unicode="&#x26;" horiz-adv-x="1234" d="M102 498q0 162 98.5 291.5t256.5 179.5l-267 592h836v-228h-494l603 -1331h-525q-137 0 -254 66.5t-185.5 180.5t-68.5 249zM338 498q0 -110 80 -188.5t192 -78.5h183l-240 527q-93 -20 -154 -93.5t-61 -166.5z" />
<glyph unicode="'" horiz-adv-x="700" d="M141 1171l199 392h223l-198 -392h-224z" />
<glyph unicode="(" horiz-adv-x="782" d="M117 317v1014q0 135 66 249.5t180 181.5t249 67h21v-223h-21q-113 0 -192.5 -80.5t-79.5 -194.5v-1014q0 -114 79.5 -194t192.5 -80h21v-223h-21q-101 0 -192.5 39.5t-158 106t-105.5 158.5t-39 193z" />
<glyph unicode=")" horiz-adv-x="794" d="M137 43h19q114 0 193 80t79 194v1014q0 114 -79 194.5t-193 80.5h-19v223h19q135 0 249.5 -67t181 -181.5t66.5 -249.5v-1014q0 -101 -39.5 -193t-106 -158.5t-158.5 -106t-193 -39.5h-19v223z" />
<glyph unicode="*" horiz-adv-x="1040" d="M129 1059v223h195l-99 168l193 111l98 -168l96 168l193 -111l-96 -168h192v-223h-192l96 -168l-193 -111l-96 168l-98 -168l-193 111l99 168h-195z" />
<glyph unicode="+" horiz-adv-x="1150" d="M184 469v223h279v279h223v-279h279v-223h-279v-279h-223v279h-279z" />
<glyph unicode="," horiz-adv-x="595" d="M160 135q0 59 41 100t100 41t100 -41t41 -100q0 -41 -24 -80l-107 -170h-145l76 121q-37 17 -59.5 52t-22.5 77z" />
<glyph unicode="-" horiz-adv-x="1048" d="M135 475v219h780v-219h-780z" />
<glyph unicode="." horiz-adv-x="585" d="M158 137q0 59 40 99t99 40q57 0 97 -40.5t40 -98.5q0 -57 -40 -97t-97 -40q-58 0 -98.5 40t-40.5 97z" />
<glyph unicode="/" horiz-adv-x="1069" d="M61 0l691 1563h233l-688 -1563h-236z" />
<glyph unicode="0" horiz-adv-x="1286" d="M137 487v586q0 137 68 253t184 183.5t252 67.5q185 0 324 -117q87 -74 133.5 -175t46.5 -212v-586q0 -136 -67.5 -252t-183.5 -183.5t-253 -67.5q-134 0 -250 68t-185 184.5t-69 250.5zM358 547l476 735l-7 4q-79 70 -186 70q-117 0 -200 -83t-83 -200v-526zM449 281 l6 -5q80 -71 186 -71q117 0 200 82.5t83 199.5v529z" />
<glyph unicode="1" horiz-adv-x="698" d="M80 1348l82 215h350v-1563h-233v1348h-199z" />
<glyph unicode="2" horiz-adv-x="1228" d="M-6 0l825 899q64 70 64 180q0 119 -83 199t-196 80q-115 0 -196.5 -81.5t-81.5 -197.5q0 -85 45.5 -154.5t122.5 -103.5l14 -6l-154 -168l-8 6q-112 67 -176 180.5t-64 245.5q0 135 67 249.5t181.5 181.5t249.5 67q129 0 243.5 -66.5t184.5 -182t70 -249.5 q0 -192 -127 -331l-486 -531h619v-217h-1114z" />
<glyph unicode="3" horiz-adv-x="1226" d="M111 483v11h219v-11q0 -118 83 -199t195 -81q116 0 198.5 81.5t82.5 198.5q0 112 -81.5 195.5t-199.5 83.5h-114l221 581h-506v218h807l-232 -613l9 -2q141 -57 228 -184.5t87 -278.5q0 -136 -67.5 -251t-182.5 -181.5t-250 -66.5q-107 0 -201 42.5t-158 112t-101 159.5 t-37 185z" />
<glyph unicode="4" horiz-adv-x="1241" d="M35 203l508 1360h231l-428 -1147h402v202h210v-202h183v-213h-183v-203h-210v203h-713z" />
<glyph unicode="5" horiz-adv-x="1232" d="M100 483v11h219v-11q0 -117 81.5 -198.5t197.5 -81.5t198.5 81.5t82.5 198.5q0 115 -82.5 197t-198.5 82h-405l303 801h508v-220h-371l-137 -362h102q135 0 250 -67t182.5 -181.5t67.5 -249.5q0 -136 -67.5 -251t-182.5 -181.5t-250 -66.5q-130 0 -244.5 65t-184 180.5 t-69.5 253.5z" />
<glyph unicode="6" horiz-adv-x="1284" d="M139 483q0 90 29 170l344 910h221l-227 -598l16 2q52 14 115 14q135 0 250 -67t182.5 -181.5t67.5 -249.5t-67.5 -250t-182.5 -182t-250 -67q-97 0 -187.5 38t-159 103.5t-110 159t-41.5 198.5zM358 483q0 -117 81.5 -198.5t197.5 -81.5q117 0 199 81.5t82 198.5 q0 116 -82 197.5t-199 81.5q-115 0 -197 -82t-82 -197z" />
<glyph unicode="7" horiz-adv-x="974" d="M59 0l510 1346h-407v217h723l-592 -1563h-234z" />
<glyph unicode="8" horiz-adv-x="1218" d="M102 487q0 118 53.5 225.5t147.5 178.5l8 4l-6 8q-104 113 -104 271q0 167 118 285t285 118q168 0 287 -118t119 -285q0 -155 -107 -271l-6 -8l8 -4q95 -70 149 -177.5t54 -226.5q0 -136 -67.5 -252t-183.5 -183.5t-253 -67.5q-136 0 -251.5 67.5t-183 183.5t-67.5 252z M322 487q0 -117 82.5 -199.5t199.5 -82.5t200 82.5t83 199.5t-83 200t-200 83t-199.5 -83t-82.5 -200zM422 1174q0 -75 53.5 -129t128.5 -54q76 0 130 54t54 129t-54 129.5t-130 54.5q-75 0 -128.5 -54.5t-53.5 -129.5z" />
<glyph unicode="9" horiz-adv-x="1273" d="M137 1079q0 205 146.5 351.5t351.5 146.5q98 0 189.5 -38.5t160 -104.5t109.5 -159t41 -196q0 -88 -31 -170l-344 -909h-219l225 598l-14 -4q-68 -14 -117 -14q-135 0 -249.5 67t-181.5 182t-67 250zM356 1079q0 -116 82 -198t197 -82q117 0 198.5 82t81.5 198 t-81.5 197.5t-198.5 81.5q-115 0 -197 -82t-82 -197z" />
<glyph unicode=":" horiz-adv-x="585" d="M158 137q0 57 41 98t98 41t97 -41t40 -98t-40 -97t-97 -40t-98 40t-41 97zM158 1026q0 57 41 97t98 40t97 -40t40 -97t-40 -97t-97 -40t-98 40t-41 97z" />
<glyph unicode=";" horiz-adv-x="520" d="M162 135q0 59 41 100t100 41t100 -41t41 -100q0 -37 -24 -80l-107 -170h-145l76 121q-37 17 -59.5 52t-22.5 77zM164 1026q0 57 40.5 97t98.5 40q57 0 97 -40t40 -97t-40 -97t-97 -40q-58 0 -98.5 40t-40.5 97z" />
<glyph unicode="&#x3c;" horiz-adv-x="1595" d="M172 580l1206 505v-225l-667 -280l667 -281v-225z" />
<glyph unicode="=" horiz-adv-x="1183" d="M201 289v217h780v-217h-780zM201 653v219h780v-219h-780z" />
<glyph unicode="&#x3e;" horiz-adv-x="1595" d="M219 74v225l668 281l-668 280v225l1206 -505z" />
<glyph unicode="?" horiz-adv-x="1257" d="M133 1073q0 137 67.5 253t183 183.5t251.5 67.5q116 0 219.5 -51t176.5 -144.5t97 -212.5v-2q11 -57 11 -94q0 -92 -33.5 -179t-95.5 -155l-211 -229v-121h-232v211l275 301q29 32 46 79t17 93q0 114 -81 192t-189 78q-111 0 -189.5 -79t-78.5 -191q0 -80 44 -147.5 t117 -98.5l25 -12l-164 -178l-14 8q-114 69 -178 182.5t-64 245.5zM545 137q0 58 40 98.5t97 40.5t97 -40.5t40 -98.5q0 -57 -40 -97t-97 -40t-97 40t-40 97z" />
<glyph unicode="@" horiz-adv-x="1902" d="M150 709q0 173 71.5 333.5t189.5 277t278 186t331 69.5q158 0 298.5 -60t244.5 -172q186 -208 186 -495q0 -70 -12 -143.5t-40.5 -151t-69.5 -137.5t-106.5 -98.5t-144.5 -38.5q-80 0 -145 42.5t-94 114.5q-32 -32 -98.5 -47.5t-123.5 -15.5q-156 0 -264 108.5 t-108 266.5q0 115 61.5 216.5t163.5 160.5t217 59q97 0 182 -45l2 18h222l-54 -598q0 -25 16 -42t40 -17q34 0 62 39.5t43 95.5t22.5 107t7.5 85q0 147 -70 268t-190.5 190t-266.5 69q-124 0 -240 -51t-201 -136t-136 -201.5t-51 -242.5q0 -219 153 -369.5t373 -150.5 q149 0 289 73l119 -178q-200 -116 -424 -116q-151 0 -286.5 56.5t-233.5 153t-155.5 231.5t-57.5 286zM766 762q0 -70 48 -119t120 -49q77 0 136 55t65 131q0 78 -45.5 130.5t-122.5 52.5q-78 0 -139.5 -61t-61.5 -140z" />
<glyph unicode="A" horiz-adv-x="1533" d="M59 0l709 1606l709 -1606h-236l-88 199h-772l-86 -199h-236zM485 434h564l-281 639z" />
<glyph unicode="B" horiz-adv-x="1476" d="M178 0v1561l502 2q165 0 282 -118t117 -284q0 -108 -51 -194q152 -51 246 -181t94 -290q0 -134 -66.5 -248t-180.5 -181t-249 -67h-694zM410 229h462q110 0 188.5 79t78.5 188q0 110 -78.5 188t-188.5 78h-462v-533zM410 991h270q70 0 120 49.5t50 120.5t-50 121.5 t-120 50.5h-270v-342z" />
<glyph unicode="C" horiz-adv-x="1562" d="M129 780q0 159 63 306t170 255t254.5 172t309.5 64q151 0 290 -54t250 -159l15 -10l-144 -191l-16 17q-78 78 -181.5 120.5t-213.5 42.5q-123 0 -230.5 -49t-179.5 -129t-113 -180.5t-41 -204.5q0 -151 77.5 -281t207.5 -205t279 -75q110 0 215.5 43.5t179.5 120.5l16 14 l144 -188l-15 -12q-239 -213 -540 -213q-171 0 -321.5 67.5t-253.5 178t-162.5 254.5t-59.5 296z" />
<glyph unicode="D" horiz-adv-x="1488" d="M178 0v1561h410q158 0 302.5 -62t249 -166.5t166.5 -249.5t62 -303t-62 -302.5t-166.5 -249t-249 -166.5t-302.5 -62h-410zM410 229h178q149 0 276 74t201 201t74 276t-74 276t-201 201t-276 74h-178v-1102z" />
<glyph unicode="E" horiz-adv-x="1302" d="M154 0v1563h1009v-230h-778v-342h586v-229h-586v-533h778v-229h-1009z" />
<glyph unicode="F" horiz-adv-x="1308" d="M182 0v1563h1010v-230h-778v-342h585v-229h-585v-762h-232z" />
<glyph unicode="G" horiz-adv-x="1662" d="M129 780q0 213 108.5 397t292.5 292t396 108q149 0 290 -55t250 -158l15 -12l-144 -189l-16 17q-78 77 -182.5 120t-212.5 43q-123 0 -230 -48.5t-178.5 -128t-112 -180.5t-40.5 -206q0 -113 44.5 -217t119.5 -179t179 -120t218 -45q211 0 377 143v205h-392v234h625v-531 l-4 -6q-93 -110 -273.5 -195t-332.5 -85q-137 0 -263 44.5t-221.5 121.5t-167 178t-108.5 217.5t-37 234.5z" />
<glyph unicode="H" horiz-adv-x="1454" d="M178 0v1563h232v-572h637v572h231v-1563h-231v762h-637v-762h-232z" />
<glyph unicode="I" horiz-adv-x="921" d="M141 0v229h203v1104h-203v230h637v-230h-203v-1104h203v-229h-637z" />
<glyph unicode="J" horiz-adv-x="1024" d="M63 385v23h230v-23q0 -71 51 -120.5t121 -49.5q71 0 120.5 49.5t49.5 120.5v948h-385v230h614v-1178q0 -166 -117.5 -283.5t-281.5 -117.5q-105 0 -197 52t-148.5 145t-56.5 204z" />
<glyph unicode="K" horiz-adv-x="1316" d="M178 0v1561h232v-775l526 775h276l-444 -648l471 -913h-264l-354 707l-211 -314v-393h-232z" />
<glyph unicode="L" horiz-adv-x="1038" d="M141 0v1563h232v-1334h575v-229h-807z" />
<glyph unicode="M" horiz-adv-x="1843" d="M176 0v1608l752 -930l751 930v-1608h-231v989l-520 -645l-518 645v-989h-234z" />
<glyph unicode="N" horiz-adv-x="1480" d="M154 0v1610l954 -1061v1016h233v-1608l-956 1061v-1018h-231z" />
<glyph unicode="O" d="M127 780q0 162 63 309.5t170 254.5t254.5 170t309.5 63q161 0 308.5 -63t254 -170t170 -254.5t63.5 -309.5q0 -215 -107 -398.5t-290.5 -290.5t-398.5 -107q-162 0 -309.5 63.5t-254.5 170t-170 254t-63 308.5zM360 780q0 -114 44.5 -218t120.5 -179t180 -119.5 t219 -44.5q114 0 218 44.5t179 119.5t119.5 179t44.5 218q0 153 -75.5 282.5t-204.5 205t-281 75.5q-153 0 -283 -75.5t-205.5 -205t-75.5 -282.5z" />
<glyph unicode="P" horiz-adv-x="1265" d="M178 0v1561h408q160 0 296 -79t215 -215t79 -296q0 -155 -76.5 -290t-213 -217.5t-300.5 -82.5h-176v-381h-232zM410 610h176q152 0 256 108.5t104 252.5q0 149 -105.5 254.5t-254.5 105.5h-176v-721z" />
<glyph unicode="Q" horiz-adv-x="1804" d="M127 780q0 161 63.5 308.5t170.5 254.5t254.5 170.5t308.5 63.5t308 -63.5t253.5 -170.5t169.5 -254.5t63 -308.5q0 -156 -57.5 -298.5t-165.5 -254.5l164 -241h-287l-65 98q-177 -100 -383 -100q-161 0 -308.5 63.5t-254.5 170t-170.5 254t-63.5 308.5zM362 780 q0 -114 44.5 -218t120 -179t179.5 -119.5t218 -44.5q132 0 252 60l-222 327h287l121 -178q123 154 123 352q0 114 -44.5 218t-119.5 179t-179 119.5t-218 44.5t-218 -44.5t-179.5 -119.5t-120 -179t-44.5 -218z" />
<glyph unicode="R" horiz-adv-x="1277" d="M143 0v1561h406q160 0 296.5 -79t216 -215t79.5 -296q0 -145 -66.5 -273t-185.5 -211l307 -487h-276l-248 393q-62 -12 -123 -12h-176v-381h-230zM373 610h176q151 0 255.5 108t104.5 253q0 149 -105.5 254.5t-254.5 105.5h-176v-721z" />
<glyph unicode="S" horiz-adv-x="1097" d="M74 266l213 96l10 -16q28 -55 85.5 -91t121.5 -36q104 0 178 67.5t78 170.5v10q0 75 -42 134.5t-108 90.5l-243 113q-108 50 -173 147t-65 213q0 110 54.5 205t148.5 151t203 56t203 -52.5t151 -146.5l10 -18l-215 -98l-8 12q-56 69 -133 69q-72 0 -126.5 -48t-54.5 -119 q0 -55 26 -98.5t73 -65.5l256 -119q105 -49 174 -136t94 -200q8 -58 8 -90q0 -197 -142 -340t-339 -143q-133 0 -250 71t-178 193z" />
<glyph unicode="T" horiz-adv-x="1253" d="M141 1333v228h1014v-228h-391v-1335h-232v1335h-391z" />
<glyph unicode="U" horiz-adv-x="1337" d="M162 485v1078h231v-1078q0 -110 82 -189t195 -79t194.5 79t81.5 189v1078h232v-1078q0 -136 -68 -251.5t-185 -182.5t-255 -67t-255 67t-185 182.5t-68 251.5z" />
<glyph unicode="V" horiz-adv-x="1536" d="M59 1561h236l473 -1072l473 1072h236l-709 -1606z" />
<glyph unicode="W" horiz-adv-x="2162" d="M37 1561h246l493 -1072l178 394l-311 678h246l491 -1072l494 1072h246l-740 -1606l-301 659l-303 -659z" />
<glyph unicode="X" horiz-adv-x="1490" d="M88 0l539 823l-482 740h263l337 -519l336 519h265l-482 -740l537 -823h-264l-392 602l-395 -602h-262z" />
<glyph unicode="Y" horiz-adv-x="1396" d="M49 1561h242l407 -908l408 908h242l-533 -1186v-377h-233v377z" />
<glyph unicode="Z" horiz-adv-x="1183" d="M88 0l637 1335h-512v228h866l-637 -1336h645v-227h-999z" />
<glyph unicode="[" horiz-adv-x="770" d="M186 -16v2009h473v-236h-235v-1538h235v-235h-473z" />
<glyph unicode="\" horiz-adv-x="1069" d="M61 1563h236l688 -1563h-233z" />
<glyph unicode="]" horiz-adv-x="833" d="M186 -16v235h238v1538h-238v236h473v-2009h-473z" />
<glyph unicode="^" horiz-adv-x="899" d="M145 1462l295 391l295 -391h-217l-78 105l-78 -105h-217z" />
<glyph unicode="_" horiz-adv-x="1863" d="M39 0v219h1784v-219h-1784z" />
<glyph unicode="`" horiz-adv-x="944" d="M221 2095h223l295 -391h-223z" />
<glyph unicode="a" horiz-adv-x="1445" d="M106 582q0 162 80.5 300t218.5 218t300 80q207 0 370 -129v82h225v-1133h-225v115q-163 -129 -370 -129q-162 0 -300 80t-218.5 217.5t-80.5 298.5zM332 582q0 -152 109.5 -261.5t263.5 -109.5q149 0 259.5 103t110.5 249v39q0 146 -110.5 249t-259.5 103 q-154 0 -263.5 -109t-109.5 -263z" />
<glyph unicode="b" horiz-adv-x="1470" d="M156 0v1608h227v-557q160 129 371 129q122 0 232.5 -47.5t190.5 -127.5t127.5 -190.5t47.5 -232.5t-47.5 -232.5t-127.5 -190.5t-190.5 -127.5t-232.5 -47.5q-209 0 -371 131v-115h-227zM383 563q0 -148 110 -250t261 -102q154 0 262 108.5t108 262.5t-108 263t-262 109 q-151 0 -261 -103t-110 -249v-39z" />
<glyph unicode="c" horiz-adv-x="1165" d="M111 582q0 158 79.5 295.5t218 220t300.5 82.5q200 0 354 -115l16 -12l-137 -181l-14 11q-95 71 -219 71q-82 0 -152.5 -32.5t-117.5 -85.5t-74 -119.5t-27 -134.5q0 -148 108 -259.5t263 -111.5q122 0 219 72l14 10l137 -180l-16 -13q-153 -114 -354 -114 q-128 0 -241 50t-190.5 132t-122 190.5t-44.5 223.5z" />
<glyph unicode="d" horiz-adv-x="1458" d="M109 582q0 122 47.5 232.5t127.5 190.5t190.5 127.5t232.5 47.5q207 0 370 -129v557h228v-1608h-228v115q-165 -131 -370 -131q-122 0 -232.5 47.5t-190.5 127.5t-127.5 190.5t-47.5 232.5zM334 582q0 -154 109.5 -262.5t263.5 -108.5q150 0 260 102.5t110 249.5v39 q0 146 -110.5 249t-259.5 103q-154 0 -263.5 -109t-109.5 -263z" />
<glyph unicode="e" horiz-adv-x="1413" d="M109 582q0 160 79.5 297.5t217.5 219t301 81.5q151 0 282.5 -72t214.5 -198t96 -277q5 -45 5 -51q0 -62 -17 -138l-4 -14h-915q44 -100 136 -159.5t202 -59.5q120 0 217 72l135 -183q-153 -114 -352 -114q-122 0 -232.5 47t-190.5 127t-127.5 190t-47.5 232zM340 647h731 q-23 132 -126 219.5t-238 87.5q-130 0 -236 -88t-131 -219z" />
<glyph unicode="f" horiz-adv-x="776" d="M96 428v221h97v647q0 129 90.5 220.5t218.5 91.5q89 0 162.5 -45.5t113.5 -124.5l10 -19l-204 -100l-9 16q-23 45 -73 45q-34 0 -58 -25t-24 -59v-647h188v-221h-188v-428h-227v428h-97z" />
<glyph unicode="g" horiz-adv-x="1462" d="M109 582q0 122 47.5 232.5t127.5 190.5t190.5 127.5t232.5 47.5q207 0 370 -129v82h228v-996q0 -117 -49.5 -227.5t-131 -191.5t-191.5 -130t-226 -49q-198 0 -355 117l135 180q97 -69 220 -69q91 0 175.5 44t138.5 125t54 177q-160 -129 -368 -129q-122 0 -232.5 47.5 t-190.5 127.5t-127.5 190.5t-47.5 232.5zM334 582q0 -154 109.5 -262.5t263.5 -108.5q92 0 173.5 43t133.5 119q63 105 63 190v39q0 146 -110.5 249t-259.5 103q-154 0 -263.5 -109t-109.5 -263z" />
<glyph unicode="h" horiz-adv-x="1284" d="M156 0v1606h229v-506q122 78 268 78q135 0 249.5 -67t181.5 -181.5t67 -249.5v-680h-231v680q0 110 -78.5 189t-188.5 79t-189 -79t-79 -189v-680h-229z" />
<glyph unicode="i" horiz-adv-x="544" d="M141 1462q0 58 40.5 99t99.5 41q57 0 97 -41t40 -99q0 -57 -40 -97t-97 -40q-58 0 -99 40t-41 97zM164 0v1161h231v-1161h-231z" />
<glyph unicode="j" horiz-adv-x="569" d="M-182 -272l205 102l8 -18q22 -43 73 -43q34 0 58 23.5t24 57.5v1313h230v-1313q0 -129 -91.5 -220t-220.5 -91q-89 0 -163.5 46t-114.5 126zM160 1468q0 59 40.5 99.5t98.5 40.5t98.5 -40.5t40.5 -99.5q0 -58 -40 -98.5t-99 -40.5t-99 40.5t-40 98.5z" />
<glyph unicode="k" horiz-adv-x="1187" d="M156 0v1606h229v-897l360 458h287l-428 -546l545 -621h-289l-393 446l-82 -106v-340h-229z" />
<glyph unicode="l" horiz-adv-x="522" d="M143 0v1606h236v-1606h-236z" />
<glyph unicode="m" horiz-adv-x="1865" d="M158 0v1133h223v-15q106 62 227 62q97 0 185.5 -40.5t152.5 -113.5q65 74 152.5 114t185.5 40q186 0 317.5 -131.5t131.5 -317.5v-731h-224v731q0 92 -66.5 158.5t-158.5 66.5q-94 0 -160.5 -66.5t-66.5 -158.5v-731h-223v731q0 93 -66 159t-160 66t-160.5 -66.5 t-66.5 -158.5v-731h-223z" />
<glyph unicode="n" horiz-adv-x="1282" d="M143 0v1133h224v-35q127 82 274 82q136 0 251 -67t182 -182t67 -251v-680h-226v680q0 114 -80 194t-194 80t-194 -80t-80 -194v-680h-224z" />
<glyph unicode="o" horiz-adv-x="1411" d="M109 582q0 122 47.5 232.5t127.5 190.5t190.5 127.5t232.5 47.5t232.5 -47.5t190.5 -127.5t127.5 -190.5t47.5 -232.5t-47.5 -232.5t-127.5 -190.5t-190.5 -127.5t-232.5 -47.5t-232.5 47.5t-190.5 127.5t-127.5 190.5t-47.5 232.5zM336 582q0 -154 108.5 -262.5 t262.5 -108.5t263 108.5t109 262.5t-109 263t-263 109t-262.5 -109t-108.5 -263z" />
<glyph unicode="p" horiz-adv-x="1431" d="M156 -446v1579h227v-82q163 129 371 129q122 0 232.5 -47.5t190.5 -127.5t127.5 -190.5t47.5 -232.5t-47.5 -232.5t-127.5 -190.5t-190.5 -127.5t-232.5 -47.5q-206 0 -371 131v-561h-227zM383 561q0 -146 110.5 -248t260.5 -102q154 0 263 108.5t109 262.5t-109 263 t-263 109q-150 0 -260.5 -103t-110.5 -249v-41z" />
<glyph unicode="q" horiz-adv-x="1460" d="M109 582q0 122 47.5 232.5t127.5 190.5t190.5 127.5t232.5 47.5q210 0 370 -129v82h228v-1579h-228v561q-162 -131 -370 -131q-122 0 -232.5 47.5t-190.5 127.5t-127.5 190.5t-47.5 232.5zM336 582q0 -154 108.5 -262.5t262.5 -108.5q152 0 261 100.5t109 249.5v41 q0 146 -109.5 249t-260.5 103q-154 0 -262.5 -109t-108.5 -263z" />
<glyph unicode="r" horiz-adv-x="708" d="M143 0v1133h224v-35q124 82 268 82l2 -224q-112 -1 -191 -81t-79 -191v-684h-224z" />
<glyph unicode="s" horiz-adv-x="894" d="M82 188l203 101l10 -15q47 -63 125 -63q63 0 108 45t45 109q0 44 -24.5 81.5t-65.5 57.5l-211 98q-73 34 -116 109.5t-43 160.5q0 128 90 218t217 90q88 0 161 -45t113 -123l8 -19l-202 -100l-8 18q-11 19 -30.5 31t-41.5 12q-34 0 -58 -24t-24 -58q0 -22 14 -44t35 -29 l193 -90q89 -42 145 -119q74 -99 74 -225q0 -158 -111 -269.5t-268 -111.5q-100 0 -187.5 50t-140.5 136z" />
<glyph unicode="t" horiz-adv-x="749" d="M92 928v235h98v443h238v-443h197v-235h-197v-928h-238v928h-98z" />
<glyph unicode="u" horiz-adv-x="1300" d="M150 481v682h225v-682q0 -113 79.5 -192.5t192.5 -79.5q114 0 194.5 79.5t80.5 192.5v682h223v-1163h-223v68q-125 -84 -275 -84q-205 0 -351 146t-146 351z" />
<glyph unicode="v" horiz-adv-x="1120" d="M61 1163h226l280 -667l281 667h225l-506 -1204z" />
<glyph unicode="w" horiz-adv-x="1832" d="M61 1159h242l301 -667l311 690l312 -690l301 667h241l-542 -1204l-312 690l-311 -690z" />
<glyph unicode="x" horiz-adv-x="1159" d="M61 0l390 610l-349 549h256l220 -344l219 344h256l-346 -549l387 -610h-258l-258 406l-256 -406h-261z" />
<glyph unicode="y" horiz-adv-x="1284" d="M61 1163h244l342 -788l340 788h246l-694 -1609h-246l231 538z" />
<glyph unicode="z" horiz-adv-x="948" d="M61 0l459 944h-338v219h684l-458 -944h464v-219h-811z" />
<glyph unicode="{" horiz-adv-x="1064" d="M119 713v223l303 133v262q0 205 146 351.5t350 146.5h20v-223h-20q-113 0 -193 -80.5t-80 -194.5v-403l-235 -103l235 -104v-404q0 -114 80 -194t193 -80h20v-223h-20q-204 0 -350 146t-146 351v263z" />
<glyph unicode="|" horiz-adv-x="768" d="M268 -59v2009h236v-2009h-236z" />
<glyph unicode="}" horiz-adv-x="1067" d="M127 43h20q113 0 193 80t80 194v404l235 104l-235 103v403q0 114 -80 194.5t-193 80.5h-20v223h20q135 0 249 -67t180.5 -181.5t66.5 -249.5v-262l303 -133v-223l-303 -133v-263q0 -135 -66.5 -249.5t-180.5 -181t-249 -66.5h-20v223z" />
<glyph unicode="~" horiz-adv-x="1136" d="M170 498v227l27 -12q76 -37 143 -37q72 0 216 39t218 39q92 0 172 -41l10 -6v-228l-26 13q-70 33 -148 36q-69 0 -212 -38.5t-220 -38.5q-90 0 -170 41z" />
<glyph unicode="&#xa1;" horiz-adv-x="581" d="M152 1421q0 57 41 98.5t98 41.5t97 -41.5t40 -98.5t-40 -97t-97 -40t-98 40t-41 97zM176 -4v1173h230v-1173h-230z" />
<glyph unicode="&#xa2;" horiz-adv-x="1179" d="M121 578q0 138 60.5 262t171 210.5t251.5 116.5v156h236v-156q122 -23 237 -104l17 -12l-138 -183l-16 13q-44 33 -100 51v-709q51 16 100 53l16 11l138 -181l-17 -12q-107 -79 -237 -106v-154h-236v154q-146 30 -257.5 119.5t-168.5 212t-57 258.5zM348 578 q0 -121 70 -215.5t186 -139.5v709q-2 0 -5.5 -1t-4.5 -1q-115 -44 -180.5 -139t-65.5 -213z" />
<glyph unicode="&#xa3;" horiz-adv-x="1175" d="M139 426v223h94v537q0 160 119.5 273.5t278.5 113.5q107 0 198.5 -52t147.5 -143l12 -18l-211 -96l-8 12q-57 67 -131 67q-72 0 -124 -46.5t-52 -116.5v-531h188v-223h-188v-205h295v185h223v-406h-748v426h-94z" />
<glyph unicode="&#xa5;" horiz-adv-x="1136" d="M51 1563h246l272 -619l273 619h245l-243 -553h223v-230h-326l-32 -75h358v-230h-383v-475h-231v475h-383v230h358l-33 75h-325v230h223z" />
<glyph unicode="&#xa8;" horiz-adv-x="972" d="M129 1847q0 59 41.5 100.5t101.5 41.5q58 0 100 -41.5t42 -100.5t-42 -101t-100 -42q-60 0 -101.5 42t-41.5 101zM563 1847q0 59 41.5 100.5t100.5 41.5t101 -42t42 -100q0 -59 -42 -101t-101 -42q-58 0 -100 42t-42 101z" />
<glyph unicode="&#xa9;" d="M127 780q0 162 63.5 309.5t171 254.5t255.5 170t311 63q161 0 308 -63t253.5 -170t169.5 -254.5t63 -309.5q0 -216 -106.5 -399.5t-289.5 -290t-398 -106.5q-217 0 -401.5 106.5t-292 290t-107.5 399.5zM324 780q0 -165 80 -305t219 -222.5t303 -82.5q121 0 232 48.5 t192 130.5t129.5 195t48.5 236q0 163 -81 304t-220 224t-301 83q-123 0 -233 -46.5t-195 -134.5q-174 -177 -174 -430zM522 780q0 160 115.5 275.5t275.5 115.5q148 0 265 -104l22 -20l-96 -127l-27 26q-68 68 -164 68q-101 0 -168 -69t-67 -165q0 -94 68 -164.5t167 -70.5 q95 0 164 69l27 27l96 -127l-22 -20q-53 -48 -120.5 -76.5t-137.5 -28.5q-78 0 -150.5 27t-122.5 78q-125 116 -125 286z" />
<glyph unicode="&#xad;" horiz-adv-x="1048" d="M135 475v219h780v-219h-780z" />
<glyph unicode="&#xae;" d="M127 780q0 162 63.5 309.5t170.5 254.5t255 170t310 63q161 0 308 -63t253.5 -170t169.5 -254.5t63 -309.5q0 -215 -106.5 -398.5t-289.5 -290.5t-398 -107q-162 0 -310 63.5t-255 170t-170.5 254t-63.5 308.5zM322 780q0 -122 47.5 -235t128 -195t192 -131t234.5 -49 q122 0 233.5 49t191.5 131t127.5 195t47.5 235q0 123 -47 235.5t-127 195t-191.5 131.5t-234.5 49q-124 0 -236 -49t-192 -131.5t-127 -195t-47 -235.5zM696 403v758h209q121 0 207 -85.5t86 -205.5q0 -138 -106 -227l151 -240h-182l-111 177q-16 -2 -45 -2h-55v-175h-154z M850 729h55q60 0 101 42t41 99t-42 98.5t-100 41.5h-55v-281z" />
<glyph unicode="&#xb4;" horiz-adv-x="1009" d="M285 1704l295 391h223l-295 -391h-223z" />
<glyph unicode="&#xb7;" horiz-adv-x="555" d="M131 580q0 57 41 98t98 41t97.5 -41t40.5 -98t-40.5 -97.5t-97.5 -40.5t-98 40.5t-41 97.5z" />
<glyph unicode="&#xb8;" horiz-adv-x="970" d="M197 -537l71 191h244q25 0 42 16t17 41q0 23 -17.5 40.5t-41.5 17.5h-201l88 229h224l-23 -55q72 -28 116 -91.5t44 -140.5q0 -103 -72.5 -175.5t-175.5 -72.5h-315z" />
<glyph unicode="&#xbf;" horiz-adv-x="1255" d="M119 489q0 92 33.5 179t95.5 155l211 230v121h231v-211l-274 -301q-29 -32 -46.5 -79.5t-17.5 -93.5q0 -114 81.5 -192t189.5 -78q111 0 189.5 79t78.5 191q0 80 -44.5 147.5t-117.5 98.5l-24 13l163 178l15 -8q114 -69 177.5 -183t63.5 -246q0 -103 -40 -196 t-107 -160.5t-159.5 -107t-194.5 -39.5q-177 0 -317.5 114t-176.5 293v2q-10 52 -10 94zM438 1425q0 57 40 97.5t97 40.5t97.5 -40.5t40.5 -97.5q0 -58 -40.5 -98.5t-97.5 -40.5t-97 40.5t-40 98.5z" />
<glyph unicode="&#xc0;" horiz-adv-x="1533" d="M59 0l709 1606l709 -1606h-236l-88 199h-772l-86 -199h-236zM362 2095h224l295 -391h-224zM485 434h564l-281 639z" />
<glyph unicode="&#xc1;" horiz-adv-x="1533" d="M59 0l709 1606l709 -1606h-236l-88 199h-772l-86 -199h-236zM485 434h564l-281 639zM662 1704l294 391h224l-295 -391h-223z" />
<glyph unicode="&#xc2;" horiz-adv-x="1533" d="M59 0l709 1606l709 -1606h-236l-88 199h-772l-86 -199h-236zM473 1702l295 391l295 -391h-217l-78 104l-78 -104h-217zM485 434h564l-281 639z" />
<glyph unicode="&#xc3;" horiz-adv-x="1533" d="M59 0l709 1606l709 -1606h-236l-88 199h-772l-86 -199h-236zM377 1751v227l26 -12q76 -37 144 -37q72 0 216 39t218 39q92 0 172 -41l10 -6v-227l-26 12q-73 34 -148 37q-69 0 -212 -39t-220 -39q-90 0 -170 41zM485 434h564l-281 639z" />
<glyph unicode="&#xc4;" horiz-adv-x="1533" d="M59 0l709 1606l709 -1606h-236l-88 199h-772l-86 -199h-236zM408 1847q0 59 41.5 100.5t101.5 41.5q58 0 99.5 -41.5t41.5 -100.5t-41.5 -101t-99.5 -42q-60 0 -101.5 42t-41.5 101zM485 434h564l-281 639zM842 1847q0 59 41.5 100.5t99.5 41.5q59 0 101 -42t42 -100 q0 -59 -42 -101t-101 -42q-58 0 -99.5 42t-41.5 101z" />
<glyph unicode="&#xc5;" horiz-adv-x="1533" d="M59 0l709 1606l709 -1606h-236l-88 199h-772l-86 -199h-236zM485 434h564l-281 639zM526 1950q0 101 72.5 173t173.5 72t173.5 -72t72.5 -173t-72.5 -173.5t-173.5 -72.5t-173.5 72.5t-72.5 173.5zM715 1950q0 -23 17 -40.5t40 -17.5t40 17.5t17 40.5q0 24 -16.5 40.5 t-40.5 16.5t-40.5 -16.5t-16.5 -40.5z" />
<glyph unicode="&#xc6;" horiz-adv-x="2158" d="M59 0l691 1563h1269v-230h-768v-342h578v-229h-578v-533h768v-229h-997v203h-633l-90 -203h-240zM496 442h526v891h-135z" />
<glyph unicode="&#xc7;" horiz-adv-x="1562" d="M129 782q0 212 108.5 395.5t292.5 291.5t396 108q151 0 290 -54t250 -159l15 -10l-144 -189l-16 15q-74 78 -179 120.5t-216 42.5q-150 0 -277 -71q-137 -86 -210.5 -213t-73.5 -277q0 -113 44.5 -216.5t119 -179.5t179 -121.5t218.5 -45.5q111 0 216 43t179 121l16 14 l144 -188l-15 -12q-238 -211 -557 -211l-8 -23q75 -28 122.5 -96t47.5 -150q0 -109 -77.5 -186.5t-186.5 -77.5h-336l76 203h260q26 0 43.5 18t17.5 43t-17.5 43.5t-43.5 18.5h-213l92 244q-169 51 -297.5 169.5t-194 272t-65.5 317.5z" />
<glyph unicode="&#xc8;" horiz-adv-x="1302" d="M154 0v1563h1009v-230h-778v-342h586v-229h-586v-533h778v-229h-1009zM262 2095h223l295 -391h-223z" />
<glyph unicode="&#xc9;" horiz-adv-x="1302" d="M154 0h1009v229h-778v533h586v229h-586v342h778v230h-1009v-1563zM532 1704l295 391h224l-295 -391h-224z" />
<glyph unicode="&#xca;" horiz-adv-x="1302" d="M154 0h1009v229h-778v533h586v229h-586v342h778v230h-1009v-1563zM373 1702l295 391l295 -391h-218l-77 104l-78 -104h-217z" />
<glyph unicode="&#xcb;" horiz-adv-x="1302" d="M154 0h1009v229h-778v533h586v229h-586v342h778v230h-1009v-1563zM309 1847q0 59 42 100.5t102 41.5q58 0 99.5 -41.5t41.5 -100.5t-41.5 -101t-99.5 -42q-60 0 -102 42t-42 101zM743 1847q0 59 41.5 100.5t100.5 41.5t101 -42t42 -100q0 -59 -42 -101t-101 -42 q-58 0 -100 42t-42 101z" />
<glyph unicode="&#xcc;" horiz-adv-x="921" d="M55 2095h224l294 -391h-223zM141 0v229h203v1104h-203v230h637v-230h-203v-1104h203v-229h-637z" />
<glyph unicode="&#xcd;" horiz-adv-x="921" d="M141 0h637v229h-203v1104h203v230h-637v-230h203v-1104h-203v-229zM346 1704l295 391h223l-295 -391h-223z" />
<glyph unicode="&#xce;" horiz-adv-x="921" d="M141 0h637v229h-203v1104h203v230h-637v-230h203v-1104h-203v-229zM162 1702l295 391l295 -391h-217l-78 104l-78 -104h-217z" />
<glyph unicode="&#xcf;" horiz-adv-x="921" d="M102 1847q0 59 42 100.5t102 41.5q58 0 99.5 -41.5t41.5 -100.5t-41.5 -101t-99.5 -42q-60 0 -102 42t-42 101zM141 0h637v229h-203v1104h203v230h-637v-230h203v-1104h-203v-229zM537 1847q0 59 41.5 100.5t99.5 41.5q59 0 101 -42t42 -100q0 -59 -42.5 -101t-100.5 -42 t-99.5 42t-41.5 101z" />
<glyph unicode="&#xd0;" horiz-adv-x="1488" d="M-49 666v229h227v666h410q158 0 302.5 -62t249 -166.5t166.5 -249.5t62 -303t-62 -302.5t-166.5 -249t-249 -166.5t-302.5 -62h-410v666h-227zM410 229h178q149 0 276 74t201 201t74 276t-74 276t-201 201t-276 74h-178v-436h364v-229h-364v-437z" />
<glyph unicode="&#xd1;" horiz-adv-x="1480" d="M154 0h231v1018l956 -1061v1608h-233v-1016l-954 1061v-1610zM358 1751v227l27 -12q76 -37 143 -37q72 0 216.5 39t218.5 39q92 0 172 -41l10 -6v-227l-27 12q-73 34 -147 37q-69 0 -212 -39t-220 -39q-90 0 -170 41z" />
<glyph unicode="&#xd2;" d="M127 780q0 162 63 309.5t170 254.5t254.5 170t309.5 63q161 0 308.5 -63t254 -170t170 -254.5t63.5 -309.5q0 -215 -107 -398.5t-290.5 -290.5t-398.5 -107q-162 0 -309.5 63.5t-254.5 170t-170 254t-63 308.5zM360 780q0 -114 44.5 -218t120.5 -179t180 -119.5 t219 -44.5q114 0 218 44.5t179 119.5t119.5 179t44.5 218q0 153 -75.5 282.5t-204.5 205t-281 75.5q-153 0 -283 -75.5t-205.5 -205t-75.5 -282.5zM520 2095h223l295 -391h-223z" />
<glyph unicode="&#xd3;" d="M127 780q0 162 63 309.5t170 254.5t254.5 170t309.5 63q161 0 308.5 -63t254 -170t170 -254.5t63.5 -309.5q0 -215 -107 -398.5t-290.5 -290.5t-398.5 -107q-162 0 -309.5 63.5t-254.5 170t-170 254t-63 308.5zM360 780q0 -114 44.5 -218t120.5 -179t180 -119.5 t219 -44.5q114 0 218 44.5t179 119.5t119.5 179t44.5 218q0 153 -75.5 282.5t-204.5 205t-281 75.5q-153 0 -283 -75.5t-205.5 -205t-75.5 -282.5zM813 1704l295 391h223l-295 -391h-223z" />
<glyph unicode="&#xd4;" d="M127 780q0 162 63 309.5t170 254.5t254.5 170t309.5 63q161 0 308.5 -63t254 -170t170 -254.5t63.5 -309.5q0 -215 -107 -398.5t-290.5 -290.5t-398.5 -107q-162 0 -309.5 63.5t-254.5 170t-170 254t-63 308.5zM360 780q0 -114 44.5 -218t120.5 -179t180 -119.5 t219 -44.5q114 0 218 44.5t179 119.5t119.5 179t44.5 218q0 153 -75.5 282.5t-204.5 205t-281 75.5q-153 0 -283 -75.5t-205.5 -205t-75.5 -282.5zM627 1702l295 391l295 -391h-218l-77 104l-78 -104h-217z" />
<glyph unicode="&#xd5;" d="M127 780q0 162 63 309.5t170 254.5t254.5 170t309.5 63q161 0 308.5 -63t254 -170t170 -254.5t63.5 -309.5q0 -215 -107 -398.5t-290.5 -290.5t-398.5 -107q-162 0 -309.5 63.5t-254.5 170t-170 254t-63 308.5zM360 780q0 -114 44.5 -218t120.5 -179t180 -119.5 t219 -44.5q114 0 218 44.5t179 119.5t119.5 179t44.5 218q0 153 -75.5 282.5t-204.5 205t-281 75.5q-153 0 -283 -75.5t-205.5 -205t-75.5 -282.5zM547 1751v227l26 -12q76 -37 144 -37q72 0 216 39t218 39q92 0 172 -41l10 -6v-227l-26 12q-73 34 -148 37q-69 0 -212 -39 t-220 -39q-90 0 -170 41z" />
<glyph unicode="&#xd6;" d="M127 780q0 162 63 309.5t170 254.5t254.5 170t309.5 63q161 0 308.5 -63t254 -170t170 -254.5t63.5 -309.5q0 -215 -107 -398.5t-290.5 -290.5t-398.5 -107q-162 0 -309.5 63.5t-254.5 170t-170 254t-63 308.5zM360 780q0 -114 44.5 -218t120.5 -179t180 -119.5 t219 -44.5q114 0 218 44.5t179 119.5t119.5 179t44.5 218q0 153 -75.5 282.5t-204.5 205t-281 75.5q-153 0 -283 -75.5t-205.5 -205t-75.5 -282.5zM573 1847q0 59 42 100.5t102 41.5q58 0 99.5 -41.5t41.5 -100.5t-41.5 -101t-99.5 -42q-60 0 -102 42t-42 101zM1008 1847 q0 59 41.5 100.5t99.5 41.5q59 0 101 -42t42 -100q0 -59 -42 -101t-101 -42q-58 0 -99.5 42t-41.5 101z" />
<glyph unicode="&#xd7;" horiz-adv-x="1040" d="M170 381l199 197l-199 198l158 158l198 -199l197 199l158 -158l-197 -198l197 -197l-158 -158l-197 197l-198 -197z" />
<glyph unicode="&#xd8;" d="M127 780q0 162 63.5 309.5t170.5 254.5t255 170t310 63q206 0 385 -98l61 84h285l-166 -222q108 -110 169.5 -255t61.5 -306q0 -215 -107 -398.5t-290.5 -290.5t-398.5 -107q-206 0 -385 100l-66 -84h-282l165 221q-108 110 -169.5 255t-61.5 304zM362 780 q0 -208 140 -368l665 876q-116 55 -241 55q-153 0 -283 -75.5t-205.5 -205t-75.5 -282.5zM684 274q113 -55 242 -55q114 0 218 44.5t179 119.5t119.5 179t44.5 218q0 213 -139 371z" />
<glyph unicode="&#xd9;" horiz-adv-x="1337" d="M162 485v1078h231v-1078q0 -110 82 -189t195 -79t194.5 79t81.5 189v1078h232v-1078q0 -136 -68 -251.5t-185 -182.5t-255 -67t-255 67t-185 182.5t-68 251.5zM274 2095h224l295 -391h-224z" />
<glyph unicode="&#xda;" horiz-adv-x="1337" d="M162 485q0 -136 68 -251.5t185 -182.5t255 -67t255 67t185 182.5t68 251.5v1078h-232v-1078q0 -110 -81.5 -189t-194.5 -79t-195 79t-82 189v1078h-231v-1078zM549 1704l295 391h223l-295 -391h-223z" />
<glyph unicode="&#xdb;" horiz-adv-x="1337" d="M162 485q0 -136 68 -251.5t185 -182.5t255 -67t255 67t185 182.5t68 251.5v1078h-232v-1078q0 -110 -81.5 -189t-194.5 -79t-195 79t-82 189v1078h-231v-1078zM375 1702l295 391l295 -391h-217l-78 104l-78 -104h-217z" />
<glyph unicode="&#xdc;" horiz-adv-x="1337" d="M162 485q0 -136 68 -251.5t185 -182.5t255 -67t255 67t185 182.5t68 251.5v1078h-232v-1078q0 -110 -81.5 -189t-194.5 -79t-195 79t-82 189v1078h-231v-1078zM309 1847q0 59 42 100.5t102 41.5q58 0 99.5 -41.5t41.5 -100.5t-41.5 -101t-99.5 -42q-60 0 -102 42t-42 101 zM743 1847q0 59 41.5 100.5t100.5 41.5t101 -42t42 -100q0 -59 -42 -101t-101 -42q-58 0 -100 42t-42 101z" />
<glyph unicode="&#xdd;" horiz-adv-x="1396" d="M49 1561h242l407 -908l408 908h242l-533 -1186v-377h-233v377zM612 1704l295 391h223l-294 -391h-224z" />
<glyph unicode="&#xde;" horiz-adv-x="1232" d="M156 0v1561h229v-398h369q166 0 282.5 -116.5t116.5 -282.5q0 -162 -117 -282t-282 -120h-369v-362h-229zM385 594h369q46 0 82 20q41 22 64.5 62t23.5 88q0 70 -50 120t-120 50h-369v-340z" />
<glyph unicode="&#xdf;" horiz-adv-x="1339" d="M158 -446v1648q0 182 118 294t310 112q167 0 286 -113.5t119 -273.5q0 -128 -98 -242q147 -59 235.5 -186.5t88.5 -280.5q0 -143 -71 -264.5t-193 -192.5t-265 -71q-167 0 -305 96v-526h-225zM383 520q0 -126 89.5 -214.5t215.5 -88.5t214.5 86.5t88.5 208.5 q0 123 -87.5 207t-215.5 84h-158v215h62q73 0 123.5 59.5t50.5 143.5q0 66 -53 112.5t-127 46.5q-89 0 -146 -55t-57 -141v-664z" />
<glyph unicode="&#xe0;" horiz-adv-x="1445" d="M106 582q0 162 80.5 300t218.5 218t300 80q207 0 370 -129v82h225v-1133h-225v115q-163 -129 -370 -129q-162 0 -300 80t-218.5 217.5t-80.5 298.5zM297 1651h223l295 -391h-223zM332 582q0 -152 109.5 -261.5t263.5 -109.5q149 0 259.5 103t110.5 249v39 q0 146 -110.5 249t-259.5 103q-154 0 -263.5 -109t-109.5 -263z" />
<glyph unicode="&#xe1;" horiz-adv-x="1445" d="M106 582q0 162 80.5 300t218.5 218t300 80q207 0 370 -129v82h225v-1133h-225v115q-163 -129 -370 -129q-162 0 -300 80t-218.5 217.5t-80.5 298.5zM332 582q0 -152 109.5 -261.5t263.5 -109.5q149 0 259.5 103t110.5 249v39q0 146 -110.5 249t-259.5 103 q-154 0 -263.5 -109t-109.5 -263zM594 1260l295 391h223l-295 -391h-223z" />
<glyph unicode="&#xe2;" horiz-adv-x="1445" d="M106 582q0 162 80.5 300t218.5 218t300 80q207 0 370 -129v82h225v-1133h-225v115q-163 -129 -370 -129q-162 0 -300 80t-218.5 217.5t-80.5 298.5zM332 582q0 -152 109.5 -261.5t263.5 -109.5q149 0 259.5 103t110.5 249v39q0 146 -110.5 249t-259.5 103 q-154 0 -263.5 -109t-109.5 -263zM424 1262l295 391l295 -391h-217l-78 104l-78 -104h-217z" />
<glyph unicode="&#xe3;" horiz-adv-x="1445" d="M106 582q0 162 80.5 300t218.5 218t300 80q207 0 370 -129v82h225v-1133h-225v115q-163 -129 -370 -129q-162 0 -300 80t-218.5 217.5t-80.5 298.5zM328 1307v227l26 -12q76 -37 144 -37q72 0 216 39t218 39q92 0 172 -41l10 -6v-228l-27 12q-73 34 -147 37 q-69 0 -212 -38.5t-220 -38.5q-91 0 -170 40zM332 582q0 -152 109.5 -261.5t263.5 -109.5q149 0 259.5 103t110.5 249v39q0 146 -110.5 249t-259.5 103q-154 0 -263.5 -109t-109.5 -263z" />
<glyph unicode="&#xe4;" horiz-adv-x="1445" d="M106 582q0 162 80.5 300t218.5 218t300 80q207 0 370 -129v82h225v-1133h-225v115q-163 -129 -370 -129q-162 0 -300 80t-218.5 217.5t-80.5 298.5zM332 582q0 -152 109.5 -261.5t263.5 -109.5q149 0 259.5 103t110.5 249v39q0 146 -110.5 249t-259.5 103 q-154 0 -263.5 -109t-109.5 -263zM356 1403q0 59 42 100t102 41q58 0 99.5 -41t41.5 -100t-41.5 -101t-99.5 -42q-60 0 -102 42t-42 101zM791 1403q0 59 41.5 100t99.5 41q59 0 101 -41.5t42 -99.5q0 -59 -42.5 -101t-100.5 -42t-99.5 42t-41.5 101z" />
<glyph unicode="&#xe5;" horiz-adv-x="1445" d="M106 582q0 162 80.5 300t218.5 218t300 80q207 0 370 -129v82h225v-1133h-225v115q-163 -129 -370 -129q-162 0 -300 80t-218.5 217.5t-80.5 298.5zM332 582q0 -152 109.5 -261.5t263.5 -109.5q149 0 259.5 103t110.5 249v39q0 146 -110.5 249t-259.5 103 q-154 0 -263.5 -109t-109.5 -263zM467 1505q0 101 72.5 173.5t173.5 72.5t173 -72.5t72 -173.5t-72 -173t-173 -72t-173.5 72t-72.5 173zM655 1505q0 -23 17.5 -40t40.5 -17t40 17t17 40q0 25 -17 41.5t-40 16.5q-24 0 -41 -17t-17 -41z" />
<glyph unicode="&#xe6;" horiz-adv-x="2418" d="M106 590q0 123 48 235t129 192.5t193 128.5t235 48q213 0 374 -131v70h230v-82q96 71 188.5 107t200.5 36q155 0 289 -74t217.5 -200.5t95.5 -278.5q4 -36 4 -51q0 -67 -16 -139l-4 -15h-926q44 -101 136.5 -161t203.5 -60q124 0 221 72l137 -183q-157 -118 -358 -118 q-220 0 -389 143v-129h-230v117q-165 -131 -374 -131q-123 0 -235 48t-193 129t-129 193t-48 234zM334 590q0 -155 111 -265t266 -110q151 0 262.5 103.5t111.5 250.5v41q0 148 -111.5 252.5t-262.5 104.5q-155 0 -266 -111t-111 -266zM1335 655h740q-23 134 -128.5 223 t-242.5 89q-136 0 -240.5 -91.5t-128.5 -220.5z" />
<glyph unicode="&#xe7;" horiz-adv-x="1163" d="M111 582q0 118 46.5 228t125.5 191t190.5 130t233.5 49q197 0 354 -117l16 -12l-137 -181l-14 13q-92 69 -219 69q-161 0 -266 -111.5t-105 -258.5q0 -150 108 -260.5t263 -110.5q121 0 219 70l14 12l137 -180l-16 -13q-137 -102 -313 -114l-11 -29q76 -30 123 -97.5 t47 -150.5q0 -109 -77.5 -186.5t-186.5 -77.5h-338l78 203h260q25 0 43.5 18t18.5 43q0 26 -18.5 44t-43.5 18h-215l92 243q-187 62 -298 219.5t-111 348.5z" />
<glyph unicode="&#xe8;" horiz-adv-x="1413" d="M109 582q0 160 79.5 297.5t217.5 219t301 81.5q151 0 282.5 -72t214.5 -198t96 -277q5 -45 5 -51q0 -62 -17 -138l-4 -14h-915q44 -100 136 -159.5t202 -59.5q120 0 217 72l135 -183q-153 -114 -352 -114q-122 0 -232.5 47t-190.5 127t-127.5 190t-47.5 232zM299 1649 h223l295 -392h-223zM340 647h731q-23 132 -126 219.5t-238 87.5q-130 0 -236 -88t-131 -219z" />
<glyph unicode="&#xe9;" horiz-adv-x="1413" d="M109 582q0 160 79.5 297.5t217.5 219t301 81.5q151 0 282.5 -72t214.5 -198t96 -277q5 -45 5 -51q0 -62 -17 -138l-4 -14h-915q44 -100 136 -159.5t202 -59.5q120 0 217 72l135 -183q-153 -114 -352 -114q-122 0 -232.5 47t-190.5 127t-127.5 190t-47.5 232zM340 647h731 q-23 132 -126 219.5t-238 87.5q-130 0 -236 -88t-131 -219zM596 1260l295 391h223l-295 -391h-223z" />
<glyph unicode="&#xea;" horiz-adv-x="1413" d="M109 582q0 160 79.5 297.5t217.5 219t301 81.5q151 0 282.5 -72t214.5 -198t96 -277q5 -45 5 -51q0 -62 -17 -138l-4 -14h-915q44 -100 136 -159.5t202 -59.5q120 0 217 72l135 -183q-153 -114 -352 -114q-122 0 -232.5 47t-190.5 127t-127.5 190t-47.5 232zM340 647h731 q-23 132 -126 219.5t-238 87.5q-130 0 -236 -88t-131 -219zM420 1262l295 391l295 -391h-217l-78 104l-78 -104h-217z" />
<glyph unicode="&#xeb;" horiz-adv-x="1413" d="M109 582q0 160 79.5 297.5t217.5 219t301 81.5q151 0 282.5 -72t214.5 -198t96 -277q5 -45 5 -51q0 -62 -17 -138l-4 -14h-915q44 -100 136 -159.5t202 -59.5q120 0 217 72l135 -183q-153 -114 -352 -114q-122 0 -232.5 47t-190.5 127t-127.5 190t-47.5 232zM340 647h731 q-23 132 -126 219.5t-238 87.5q-130 0 -236 -88t-131 -219zM354 1405q0 59 42 100t102 41q58 0 99.5 -41t41.5 -100t-41.5 -101t-99.5 -42q-60 0 -102 42t-42 101zM788 1405q0 58 41.5 99.5t100.5 41.5t101 -41.5t42 -99.5q0 -59 -42.5 -101t-100.5 -42t-100 42t-42 101z " />
<glyph unicode="&#xec;" horiz-adv-x="542" d="M-125 1651h223l295 -391h-223zM162 0v1161h231v-1161h-231z" />
<glyph unicode="&#xed;" horiz-adv-x="544" d="M164 0v1161h231v-1161h-231zM170 1257l295 392h223l-295 -392h-223z" />
<glyph unicode="&#xee;" horiz-adv-x="542" d="M-16 1262l295 391l294 -391h-217l-77 104l-78 -104h-217zM162 0v1161h231v-1161h-231z" />
<glyph unicode="&#xef;" horiz-adv-x="544" d="M-78 1403q0 59 42 100t102 41q58 0 99.5 -41t41.5 -100t-41.5 -101t-99.5 -42q-60 0 -102 42t-42 101zM164 0v1161h231v-1161h-231zM356 1403q0 58 41.5 99.5t100.5 41.5t101 -41.5t42 -99.5q0 -59 -42.5 -101t-100.5 -42t-100 42t-42 101z" />
<glyph unicode="&#xf1;" horiz-adv-x="1282" d="M143 0v1133h224v-35q127 82 274 82q136 0 251 -67t182 -182t67 -251v-680h-226v680q0 114 -80 194t-194 80t-194 -80t-80 -194v-680h-224zM248 1307v227l26 -12q76 -37 144 -37q72 0 216 39t218 39q92 0 172 -41l10 -6v-228l-26 12q-73 34 -148 37q-69 0 -212 -38.5 t-220 -38.5q-91 0 -170 40z" />
<glyph unicode="&#xf2;" horiz-adv-x="1411" d="M109 582q0 122 47.5 232.5t127.5 190.5t190.5 127.5t232.5 47.5t232.5 -47.5t190.5 -127.5t127.5 -190.5t47.5 -232.5t-47.5 -232.5t-127.5 -190.5t-190.5 -127.5t-232.5 -47.5t-232.5 47.5t-190.5 127.5t-127.5 190.5t-47.5 232.5zM299 1649h223l295 -392h-223zM336 582 q0 -154 108.5 -262.5t262.5 -108.5t263 108.5t109 262.5t-109 263t-263 109t-262.5 -109t-108.5 -263z" />
<glyph unicode="&#xf3;" horiz-adv-x="1411" d="M109 582q0 122 47.5 232.5t127.5 190.5t190.5 127.5t232.5 47.5t232.5 -47.5t190.5 -127.5t127.5 -190.5t47.5 -232.5t-47.5 -232.5t-127.5 -190.5t-190.5 -127.5t-232.5 -47.5t-232.5 47.5t-190.5 127.5t-127.5 190.5t-47.5 232.5zM336 582q0 -154 108.5 -262.5 t262.5 -108.5t263 108.5t109 262.5t-109 263t-263 109t-262.5 -109t-108.5 -263zM598 1260l295 391h223l-295 -391h-223z" />
<glyph unicode="&#xf4;" horiz-adv-x="1411" d="M109 582q0 122 47.5 232.5t127.5 190.5t190.5 127.5t232.5 47.5t232.5 -47.5t190.5 -127.5t127.5 -190.5t47.5 -232.5t-47.5 -232.5t-127.5 -190.5t-190.5 -127.5t-232.5 -47.5t-232.5 47.5t-190.5 127.5t-127.5 190.5t-47.5 232.5zM336 582q0 -154 108.5 -262.5 t262.5 -108.5t263 108.5t109 262.5t-109 263t-263 109t-262.5 -109t-108.5 -263zM410 1262l295 391l294 -391h-217l-77 104l-78 -104h-217z" />
<glyph unicode="&#xf5;" horiz-adv-x="1411" d="M109 582q0 122 47.5 232.5t127.5 190.5t190.5 127.5t232.5 47.5t232.5 -47.5t190.5 -127.5t127.5 -190.5t47.5 -232.5t-47.5 -232.5t-127.5 -190.5t-190.5 -127.5t-232.5 -47.5t-232.5 47.5t-190.5 127.5t-127.5 190.5t-47.5 232.5zM311 1307v227l27 -12q76 -37 143 -37 q72 0 216 39t218 39q92 0 172 -41l11 -6v-228l-27 12q-73 34 -147 37q-69 0 -212 -38.5t-220 -38.5q-91 0 -170 40zM336 582q0 -154 108.5 -262.5t262.5 -108.5t263 108.5t109 262.5t-109 263t-263 109t-262.5 -109t-108.5 -263z" />
<glyph unicode="&#xf6;" horiz-adv-x="1411" d="M109 582q0 122 47.5 232.5t127.5 190.5t190.5 127.5t232.5 47.5t232.5 -47.5t190.5 -127.5t127.5 -190.5t47.5 -232.5t-47.5 -232.5t-127.5 -190.5t-190.5 -127.5t-232.5 -47.5t-232.5 47.5t-190.5 127.5t-127.5 190.5t-47.5 232.5zM336 582q0 -154 108.5 -262.5 t262.5 -108.5t263 108.5t109 262.5t-109 263t-263 109t-262.5 -109t-108.5 -263zM348 1403q0 59 42 100t102 41q58 0 99.5 -41t41.5 -100t-41.5 -101t-99.5 -42q-60 0 -102 42t-42 101zM782 1403q0 58 41.5 99.5t100.5 41.5t101 -41.5t42 -99.5q0 -59 -42.5 -101t-100.5 -42 t-100 42t-42 101z" />
<glyph unicode="&#xf7;" horiz-adv-x="987" d="M109 475v219h780v-219h-780zM367 137q0 57 41 98t98 41t97 -41t40 -98t-40 -97t-97 -40t-98 40t-41 97zM367 1026q0 57 41 97t98 40t97 -40t40 -97t-40 -97t-97 -40t-98 40t-41 97z" />
<glyph unicode="&#xf8;" horiz-adv-x="1409" d="M109 580q0 162 80 300t217.5 218t298.5 80q143 0 272 -66l37 49h262l-133 -176q160 -171 160 -405q0 -122 -47.5 -232t-127.5 -190t-190.5 -127t-232.5 -47q-142 0 -271 63l-37 -49h-264l133 176q-157 171 -157 406zM334 580q0 -121 74 -220l428 568q-62 24 -131 24 q-154 0 -262.5 -109t-108.5 -263zM575 233q61 -24 130 -24q154 0 263 108.5t109 262.5q0 123 -73 221z" />
<glyph unicode="&#xf9;" horiz-adv-x="1300" d="M150 481v682h225v-682q0 -113 79.5 -192.5t192.5 -79.5q114 0 194.5 79.5t80.5 192.5v682h223v-1163h-223v68q-125 -84 -275 -84q-205 0 -351 146t-146 351zM240 1647h223l295 -392h-223z" />
<glyph unicode="&#xfa;" horiz-adv-x="1300" d="M150 481v682h225v-682q0 -113 79.5 -192.5t192.5 -79.5q114 0 194.5 79.5t80.5 192.5v682h223v-1163h-223v68q-125 -84 -275 -84q-205 0 -351 146t-146 351zM535 1257l294 392h224l-295 -392h-223z" />
<glyph unicode="&#xfb;" horiz-adv-x="1300" d="M150 481v682h225v-682q0 -113 79.5 -192.5t192.5 -79.5q114 0 194.5 79.5t80.5 192.5v682h223v-1163h-223v68q-125 -84 -275 -84q-205 0 -351 146t-146 351zM346 1262l295 391l295 -391h-217l-78 104l-78 -104h-217z" />
<glyph unicode="&#xfc;" horiz-adv-x="1300" d="M150 481v682h225v-682q0 -113 79.5 -192.5t192.5 -79.5q114 0 194.5 79.5t80.5 192.5v682h223v-1163h-223v68q-125 -84 -275 -84q-205 0 -351 146t-146 351zM285 1401q0 59 41.5 100t101.5 41q58 0 99.5 -41t41.5 -100t-41.5 -101.5t-99.5 -42.5q-60 0 -101.5 42.5 t-41.5 101.5zM719 1401q0 59 41.5 100t99.5 41q59 0 101.5 -41.5t42.5 -99.5q0 -59 -43 -101.5t-101 -42.5t-99.5 42.5t-41.5 101.5z" />
<glyph unicode="&#xfd;" horiz-adv-x="1284" d="M61 1163l463 -1071l-231 -538h246l694 1609h-246l-340 -788l-342 788h-244zM528 1257l295 392h224l-295 -392h-224z" />
<glyph unicode="&#xfe;" horiz-adv-x="1429" d="M156 -446v2009h227v-512q160 129 371 129q122 0 232 -47.5t190 -127.5t127 -190.5t47 -232.5t-47 -232.5t-127 -190.5t-190 -127.5t-232 -47.5q-209 0 -371 131v-561h-227zM383 561q0 -146 110 -248t261 -102q154 0 262 108.5t108 262.5t-108 262t-262 108 q-151 0 -261 -102t-110 -248v-41z" />
<glyph unicode="&#xff;" horiz-adv-x="1284" d="M61 1163l463 -1071l-231 -538h246l694 1609h-246l-340 -788l-342 788h-244zM291 1403q0 59 41.5 100t101.5 41q58 0 99.5 -41t41.5 -100t-41.5 -101t-99.5 -42q-60 0 -101.5 42t-41.5 101zM725 1403q0 59 41.5 100t99.5 41q59 0 101.5 -41.5t42.5 -99.5t-42.5 -100.5 t-101.5 -42.5q-58 0 -99.5 42t-41.5 101z" />
<glyph unicode="&#x152;" horiz-adv-x="2646" d="M127 780q0 162 63.5 309.5t170.5 254.5t254.5 170t308.5 63q158 0 304 -60t259 -171v217h1018v-234h-785v-334h588v-233h-588v-529h785v-233h-1018v217q-113 -111 -259.5 -172t-303.5 -61q-161 0 -308.5 63.5t-254.5 170t-170.5 254t-63.5 308.5zM362 780 q0 -114 44.5 -218t120 -179t179.5 -119.5t218 -44.5q153 0 282.5 75.5t205 204.5t75.5 281q0 153 -75.5 282.5t-205 205t-282.5 75.5q-152 0 -281.5 -75.5t-205 -205t-75.5 -282.5z" />
<glyph unicode="&#x153;" horiz-adv-x="2394" d="M109 580q0 162 80 300t217.5 218t298.5 80q149 0 278.5 -68t212.5 -190q91 126 220 192t274 66q149 0 281.5 -73t216.5 -199t96 -275q2 -18 2 -51q0 -74 -17 -138l-2 -16h-917q46 -100 138 -158.5t202 -58.5q119 0 217 70l135 -181q-153 -114 -352 -114 q-150 0 -279.5 67.5t-214.5 190.5q-83 -123 -212 -190.5t-279 -67.5q-161 0 -298.5 79.5t-217.5 217t-80 299.5zM334 580q0 -154 108.5 -262.5t262.5 -108.5t263 108.5t109 262.5t-109 262t-263 108t-262.5 -108t-108.5 -262zM1323 645h731q-23 132 -126 218.5t-238 86.5 q-141 0 -242 -88t-125 -217z" />
<glyph unicode="&#x178;" horiz-adv-x="1396" d="M49 1561h242l407 -908l408 908h242l-533 -1186v-377h-233v377zM340 1847q0 59 41.5 100.5t101.5 41.5q59 0 100.5 -41.5t41.5 -100.5t-42 -101t-100 -42q-60 0 -101.5 42t-41.5 101zM774 1847q0 59 41.5 100.5t99.5 41.5q59 0 101.5 -42t42.5 -100t-42.5 -100.5 t-101.5 -42.5q-58 0 -99.5 42t-41.5 101z" />
<glyph unicode="&#x2c6;" horiz-adv-x="886" d="M145 1704l295 391l295 -391h-217l-78 104l-78 -104h-217z" />
<glyph unicode="&#x2dc;" horiz-adv-x="1040" d="M131 1751v227l27 -12q76 -37 143 -37q72 0 216 39t218 39q92 0 172 -41l11 -6v-227l-27 12q-73 34 -148 37q-69 0 -212 -39t-220 -39q-90 0 -170 41z" />
<glyph unicode="&#x2000;" horiz-adv-x="1097" />
<glyph unicode="&#x2001;" horiz-adv-x="2195" />
<glyph unicode="&#x2002;" horiz-adv-x="1097" />
<glyph unicode="&#x2003;" horiz-adv-x="2195" />
<glyph unicode="&#x2004;" horiz-adv-x="731" />
<glyph unicode="&#x2005;" horiz-adv-x="548" />
<glyph unicode="&#x2006;" horiz-adv-x="365" />
<glyph unicode="&#x2007;" horiz-adv-x="365" />
<glyph unicode="&#x2008;" horiz-adv-x="274" />
<glyph unicode="&#x2009;" horiz-adv-x="439" />
<glyph unicode="&#x200a;" horiz-adv-x="121" />
<glyph unicode="&#x2010;" horiz-adv-x="1048" d="M135 475v219h780v-219h-780z" />
<glyph unicode="&#x2011;" horiz-adv-x="1048" d="M135 475v219h780v-219h-780z" />
<glyph unicode="&#x2012;" horiz-adv-x="1048" d="M135 475v219h780v-219h-780z" />
<glyph unicode="&#x2013;" horiz-adv-x="1595" d="M131 475v217h1337v-217h-1337z" />
<glyph unicode="&#x2014;" horiz-adv-x="2039" d="M131 475v217h1784v-217h-1784z" />
<glyph unicode="&#x2018;" horiz-adv-x="458" d="M76 1313q0 41 24 80l107 170h145l-76 -121q37 -17 59.5 -52t22.5 -77q0 -59 -41.5 -100.5t-99.5 -41.5t-99.5 41.5t-41.5 100.5z" />
<glyph unicode="&#x2019;" horiz-adv-x="454" d="M111 1421q0 59 41.5 100.5t99.5 41.5t99.5 -41.5t41.5 -100.5q0 -41 -24 -80l-107 -170h-145l76 121q-37 17 -59.5 52t-22.5 77z" />
<glyph unicode="&#x201a;" horiz-adv-x="516" d="M160 135q0 59 41 100t100 41t100 -41t41 -100q0 -41 -24 -80l-107 -170h-145l76 121q-37 17 -59.5 52t-22.5 77z" />
<glyph unicode="&#x201c;" horiz-adv-x="907" d="M84 1313q0 46 22 80l107 170h145l-75 -121q39 -17 61.5 -52t22.5 -77q0 -59 -41.5 -100.5t-100.5 -41.5q-58 0 -99.5 41.5t-41.5 100.5zM508 1313q0 34 22 80l109 170h143l-73 -121q37 -17 59.5 -52t22.5 -77q0 -59 -41.5 -100.5t-100.5 -41.5q-58 0 -99.5 41.5 t-41.5 100.5z" />
<glyph unicode="&#x201d;" horiz-adv-x="905" d="M123 1421q0 59 41.5 100.5t99.5 41.5t100 -41.5t42 -100.5q0 -32 -23 -80l-109 -170h-143l74 121q-37 17 -59.5 52t-22.5 77zM547 1421q0 59 41.5 100.5t99.5 41.5t99.5 -41.5t41.5 -100.5q0 -46 -22 -80l-107 -170h-145l76 121q-39 17 -61.5 52t-22.5 77z" />
<glyph unicode="&#x201e;" horiz-adv-x="958" d="M131 135q0 59 41.5 100t99.5 41q59 0 100.5 -41.5t41.5 -99.5q0 -32 -23 -80l-108 -170h-144l74 121q-37 17 -59.5 52t-22.5 77zM555 135q0 59 41.5 100t99.5 41q59 0 100.5 -41.5t41.5 -99.5q0 -44 -23 -80l-106 -170h-146l76 121q-39 17 -61.5 52t-22.5 77z" />
<glyph unicode="&#x2022;" horiz-adv-x="675" d="M170 580q0 69 49.5 118.5t118.5 49.5t117.5 -49.5t48.5 -118.5t-48.5 -118.5t-117.5 -49.5t-118.5 49.5t-49.5 118.5z" />
<glyph unicode="&#x2026;" horiz-adv-x="1378" d="M131 137q0 57 40 97t97 40q58 0 99 -40t41 -97t-41 -98t-99 -41q-57 0 -97 41t-40 98zM545 137q0 57 40.5 97t98.5 40q57 0 97 -40t40 -97t-40 -98t-97 -41q-58 0 -98.5 41t-40.5 98zM958 137q0 57 41.5 97t98.5 40t97 -40t40 -97t-40 -98t-97 -41t-98.5 41t-41.5 98z " />
<glyph unicode="&#x202f;" horiz-adv-x="439" />
<glyph unicode="&#x205f;" horiz-adv-x="548" />
<glyph unicode="&#x20ac;" horiz-adv-x="1474" d="M113 459v241h190q-4 50 -4 78q0 26 4 80h-190v242h254q95 214 292.5 345.5t438.5 131.5q142 0 272 -47l-96 -215q-79 26 -176 26q-140 0 -262.5 -65t-200.5 -176h276v-242h-370q-6 -41 -6 -80q0 -40 6 -78h370v-241h-276q78 -112 200.5 -178t262.5 -66q87 0 176 29 l96 -215q-130 -47 -272 -47q-241 0 -438.5 131.5t-292.5 345.5h-254z" />
<glyph unicode="&#x2122;" horiz-adv-x="1908" d="M152 741v152h579v-152h-213v-741h-153v741h-213zM967 0v938l397 -524l395 524v-938h-151v498l-244 -324l-246 324v-498h-151z" />
<glyph unicode="&#x25fc;" horiz-adv-x="1157" d="M0 0v1157h1157v-1157h-1157z" />
<glyph horiz-adv-x="1722" d="M176 0v1563h221l471 -746l467 746h13h211v-1563h-230v1122l-461 -731l-460 731v-1122h-232z" />
<glyph horiz-adv-x="1372" d="M178 0v1563h232v-1092l557 1092h239l-375 -736l476 -827h-242l-348 604l-309 -604h-230z" />
<glyph horiz-adv-x="1331" d="M162 496v1067h231v-1067q0 -110 80 -188.5t191 -78.5h278v1334h232v-1563h-510q-207 0 -354.5 145.5t-147.5 350.5z" />
<glyph horiz-adv-x="1417" d="M154 0v1561h223l667 -809v809h232v-1561h-232v385l-657 797v-1182h-233z" />
<glyph horiz-adv-x="1265" d="M178 0v1561h598q166 0 283 -117t117 -283q0 -106 -52.5 -198t-144.5 -146q-91 -55 -203 -55h-366v-762h-232zM410 991h366q44 0 82 21q41 23 64.5 63t23.5 86q0 71 -50 120.5t-120 49.5h-366v-340z" />
<glyph horiz-adv-x="1558" d="M143 0v1561h598q165 0 282.5 -117.5t117.5 -282.5q0 -100 -48.5 -189t-131.5 -145l522 -827h-277l-479 762h-354v-762h-230zM373 991h368q70 0 120 51t50 119q0 71 -49.5 120.5t-120.5 49.5h-368v-340z" />
<glyph horiz-adv-x="2162" d="M37 1561h246l491 -1074l303 662l303 -662l494 1074h246l-740 -1608l-303 659l-303 -659z" />
<glyph horiz-adv-x="1394" d="M154 0h233v1182l657 -797v-385h232v1561h-232v-809l-667 809h-223v-1561zM328 1751v227l26 -12q76 -37 144 -37q72 0 216 39t218 39q92 0 172 -41l10 -6v-227l-27 12q-73 34 -147 37q-69 0 -212 -39t-220 -39q-90 0 -170 41z" />
<glyph horiz-adv-x="1331" d="M162 496q0 -205 147.5 -350.5t354.5 -145.5h510v1563h-232v-1334h-278q-111 0 -191 78.5t-80 188.5v1067h-231v-1067zM313 1847q0 59 42 100.5t102 41.5q58 0 99.5 -41.5t41.5 -100.5t-41.5 -101t-99.5 -42q-60 0 -102 42t-42 101zM748 1847q0 59 41.5 100.5t99.5 41.5 q59 0 101 -42t42 -100q0 -59 -42 -101t-101 -42q-58 0 -99.5 42t-41.5 101z" />
<glyph horiz-adv-x="1331" d="M162 496q0 -205 147.5 -350.5t354.5 -145.5h510v1563h-232v-1334h-278q-111 0 -191 78.5t-80 188.5v1067h-231v-1067zM563 1704l295 391h223l-295 -391h-223z" />
<glyph horiz-adv-x="1331" d="M162 496v1067h231v-1067q0 -110 80 -188.5t191 -78.5h278v1334h232v-1563h-510q-207 0 -354.5 145.5t-147.5 350.5zM270 2095h224l294 -391h-223z" />
<glyph horiz-adv-x="1331" d="M162 496q0 -205 147.5 -350.5t354.5 -145.5h510v1563h-232v-1334h-278q-111 0 -191 78.5t-80 188.5v1067h-231v-1067zM375 1702l295 391l295 -391h-217l-78 104l-78 -104h-217z" />
<glyph horiz-adv-x="514" d="M141 0v1561h232v-1561h-232z" />
<glyph horiz-adv-x="1024" d="M66 385v23h229v-23q0 -43 22 -82q22 -41 62 -64.5t88 -23.5q71 0 120.5 49.5t49.5 120.5v1176l229 2v-1178q0 -166 -117.5 -283.5t-281.5 -117.5q-106 0 -199 53t-147 145q-55 96 -55 203z" />
<glyph horiz-adv-x="514" d="M141 0v1561h232v-1561h-232zM145 1704l295 391h224l-295 -391h-224z" />
<glyph horiz-adv-x="514" d="M-141 2095h223l295 -391h-223zM141 0v1561h232v-1561h-232z" />
<glyph horiz-adv-x="514" d="M-33 1702l295 391l295 -391h-217l-78 104l-78 -104h-217zM141 0v1561h232v-1561h-232z" />
<glyph horiz-adv-x="514" d="M-100 1847q0 59 41.5 100.5t101.5 41.5q58 0 99.5 -41.5t41.5 -100.5t-41.5 -101t-99.5 -42q-60 0 -101.5 42t-41.5 101zM141 0v1561h232v-1561h-232zM334 1847q0 59 41.5 100.5t99.5 41.5q59 0 101 -42t42 -100q0 -59 -42 -101t-101 -42q-58 0 -99.5 42t-41.5 101z" />
</font>
</defs>
</svg>
